# xmcd CD database file
#
# Track frame offsets:
#	150
#	19775
#	38344
#	57390
#	74359
#	92814
#	114008
#	134166
#	151483
#	168279
#	186645
#	205449
#	224031
#	242268
#	262413
#
# Disc length: 3704 seconds
#
# Revision: 0
# Processed by: cddbd v1.4PL0 Copyright (c) Steve Scherf et al.
# Submitted via: CDex 1.50beta9
#
DISCID=e20e760f
DTITLE=Various Artist - Merengue Frenzy, Frenesi de Merengue, Super Cool Party Mix 
DYEAR=2000
DGENRE=Merengue
TTITLE0=Pintame
TTITLE1=El Niagara en Bicicleta - Johnny Pavas
TTITLE2=Niña Bonita
TTITLE3=No Me Digas Que No - Juan Fernando Naranjo
TTITLE4=Vivir Asi Es Morir de Amor
TTITLE5=En Las Nubes - Juan Fernando Naranjo
TTITLE6=La Última Noche - Juan Fernando Naranjo
TTITLE7=Cuando Acaba el Placer - Juan Fernando Naranjo
TTITLE8=Para Darte Mi Vida - Bibiana Ramirez
TTITLE9=Malaria - Marco Vinicio
TTITLE10=Se Parece a Ti - Bibiana Ramirez
TTITLE11=La Vaca - Marco Vinicio
TTITLE12=El Blablazo - Marco Vinicio
TTITLE13=Ponte en Cuatro - Marco Vinicio
TTITLE14=El Toro - Marco Vinicio
EXTD=YEAR: 2000
EXTT0=
EXTT1=
EXTT2=
EXTT3=
EXTT4=
EXTT5=
EXTT6=
EXTT7=
EXTT8=
EXTT9=
EXTT10=
EXTT11=
EXTT12=
EXTT13=
EXTT14=
PLAYORDER=
